<?xml version="1.0" standalone="no"?><!DOCTYPE svg PUBLIC "-//W3C//DTD SVG 1.1//EN"
    "http://www.w3.org/Graphics/SVG/1.1/DTD/svg11.dtd">
<svg class="icon" height="200" p-id="10277" t="1599035389319" version="1.1" viewBox="0 0 1024 1024"
    width="200" xmlns="http://www.w3.org/2000/svg">
    <defs>
        <style type="text/css"></style>
    </defs>
    <path
        d="M841.142857 402.285714v73.142857q0 126.285714-84.285714 219.714286T548.571429 802.285714v75.428572h146.285714q14.857143 0 25.714286 10.857143t10.857142 25.714285-10.857142 25.714286-25.714286 10.857143H329.142857q-14.857143 0-25.714286-10.857143t-10.857142-25.714286 10.857142-25.714285 25.714286-10.857143h146.285714v-75.428572q-124-13.714286-208.285714-107.142857T182.857143 475.428571V402.285714q0-14.857143 10.857143-25.714285t25.714285-10.857143 25.714286 10.857143 10.857143 25.714285v73.142857q0 105.714286 75.142857 180.857143T512 731.428571t180.857143-75.142857T768 475.428571V402.285714q0-14.857143 10.857143-25.714285t25.714286-10.857143 25.714285 10.857143 10.857143 25.714285z m-146.285714-219.428571v292.571428q0 75.428571-53.714286 129.142858t-129.142857 53.714285-129.142857-53.714285-53.714286-129.142858V182.857143q0-75.428571 53.714286-129.142857T512 0t129.142857 53.714286 53.714286 129.142857z"
        p-id="10278"></path>
</svg>